<?xml version="1.0" standalone="no"?>
<!DOCTYPE svg PUBLIC "-//W3C//DTD SVG 20010904//EN"
 "http://www.w3.org/TR/2001/REC-SVG-20010904/DTD/svg10.dtd">
<svg version="1.0" xmlns="http://www.w3.org/2000/svg"
 width="324.000000pt" height="324.000000pt" viewBox="0 0 324.000000 324.000000"
 preserveAspectRatio="xMidYMid meet">
<metadata>
Created by potrace 1.11, written by Peter Selinger 2001-2013
</metadata>
<g transform="translate(0.000000,324.000000) scale(0.100000,-0.100000)"
fill="#000000" stroke="none">
<path d="M1641 3144 c10 -38 21 -78 23 -89 3 -11 12 -45 22 -75 9 -30 17 -59
18 -65 9 -42 19 -82 24 -90 4 -5 7 -14 8 -20 1 -5 34 -127 74 -270 40 -143 73
-267 75 -275 2 -8 4 -15 5 -15 1 0 3 -7 5 -15 7 -34 54 -197 63 -220 l11 -25
2 30 c1 17 3 39 4 50 12 109 18 166 21 200 1 22 5 58 8 80 3 22 8 65 11 95 3
30 9 93 15 140 10 90 19 186 26 260 2 25 7 68 10 95 3 28 6 72 7 100 2 56 14
47 -118 84 -38 11 -115 34 -170 50 -55 17 -114 33 -132 37 l-32 6 20 -68z"/>
<path d="M1337 3134 c-1 -1 -38 -5 -82 -8 -163 -13 -210 -18 -212 -20 -2 -2
118 -168 205 -284 11 -15 75 -101 142 -192 67 -91 130 -176 140 -190 10 -14
76 -101 145 -195 74 -98 125 -159 122 -145 -2 14 -28 108 -57 210 -28 102 -53
192 -55 201 -2 8 -17 63 -34 121 -16 58 -32 116 -35 129 -3 13 -27 103 -54
199 l-49 175 -86 1 c-48 0 -88 -1 -90 -2z"/>
<path d="M2209 3083 c0 -10 -2 -25 -3 -33 -2 -8 -6 -48 -10 -88 -3 -40 -8 -89
-11 -110 -5 -43 -24 -216 -30 -282 -2 -25 -6 -65 -9 -90 -7 -56 -16 -149 -22
-212 -7 -87 -13 -142 -18 -188 -3 -25 -8 -72 -11 -105 -3 -33 -8 -78 -11 -100
l-4 -40 18 30 c10 17 47 89 83 160 35 72 66 132 69 135 12 12 30 51 30 64 0 8
4 16 9 18 4 2 26 39 48 83 121 241 168 330 175 333 4 2 8 9 8 16 0 6 16 42 35
79 41 76 49 60 -75 152 -41 30 -89 66 -107 80 -17 14 -48 37 -68 50 -20 14
-45 34 -57 45 -27 25 -38 25 -39 3z"/>
<path d="M869 2959 c-46 -23 -120 -58 -164 -80 -45 -21 -86 -39 -93 -39 -7 0
-12 -3 -12 -8 0 -4 -19 -16 -42 -26 l-43 -18 30 -15 c17 -9 32 -19 35 -23 3
-3 12 -10 20 -13 8 -4 45 -27 82 -50 37 -23 104 -65 150 -93 46 -28 108 -66
138 -85 30 -19 57 -36 60 -39 3 -3 18 -12 33 -20 28 -15 148 -90 337 -209 57
-36 112 -70 121 -76 10 -5 34 -20 53 -32 20 -12 36 -20 36 -17 0 3 -46 66
-102 140 -57 75 -110 145 -118 157 -8 12 -110 149 -226 304 l-210 282 -85 -40z"/>
<path d="M2701 2763 c-25 -48 -233 -457 -342 -673 -68 -135 -126 -247 -129
-250 -14 -14 -93 -180 -85 -180 2 0 16 12 32 28 15 15 66 61 113 102 47 41 96
84 110 97 38 34 79 71 166 148 43 39 103 93 134 120 31 28 89 79 129 115 40
36 88 79 106 95 l34 30 -89 140 c-49 77 -103 164 -120 193 -34 56 -44 62 -59
35z"/>
<path d="M380 2549 c-231 -245 -226 -238 -192 -240 36 -3 61 -7 217 -38 290
-58 448 -89 565 -111 63 -12 180 -35 258 -51 79 -16 156 -29 170 -29 23 0 19
5 -28 32 -30 18 -56 36 -58 40 -2 4 -8 8 -13 8 -6 0 -37 18 -69 40 -32 22 -64
40 -69 40 -6 0 -11 4 -11 9 0 5 -8 11 -17 14 -18 6 -74 38 -83 47 -3 3 -50 33
-105 67 -55 34 -105 67 -112 73 -7 5 -15 10 -18 10 -3 0 -33 18 -65 40 -32 22
-63 40 -69 40 -5 0 -11 3 -13 8 -3 7 -171 112 -180 112 -2 0 -51 -50 -108
-111z"/>
<path d="M3025 2273 c-28 -25 -77 -68 -109 -96 -33 -29 -69 -61 -80 -72 -12
-11 -55 -49 -96 -85 -41 -36 -84 -74 -96 -85 -11 -11 -48 -43 -81 -72 -33 -29
-73 -65 -90 -80 -16 -15 -46 -41 -65 -58 -56 -48 -177 -156 -232 -208 -52 -48
-47 -51 31 -16 24 10 47 19 52 19 7 0 48 15 136 50 11 5 57 22 103 39 45 17
119 45 165 62 45 17 92 35 105 40 12 5 32 13 45 18 12 5 49 19 82 31 33 12 73
28 90 35 16 8 33 11 37 9 4 -3 8 0 8 5 0 6 6 11 14 11 7 0 36 10 65 21 56 24
57 27 41 106 -5 26 -12 59 -14 73 -3 14 -14 68 -25 120 -11 53 -23 113 -27
135 -3 22 -7 41 -8 42 0 1 -24 -19 -51 -44z"/>
<path d="M167 2163 c-3 -10 -37 -97 -77 -193 -39 -96 -76 -185 -81 -197 -8
-22 -6 -23 29 -18 20 3 48 8 60 11 13 3 42 7 64 10 21 3 45 7 51 8 37 8 86 16
112 20 17 2 30 5 30 6 0 2 33 8 85 15 25 3 56 9 70 12 13 4 34 7 45 8 11 1 27
5 36 9 9 4 20 6 25 4 8 -2 68 8 199 32 156 29 274 50 305 55 176 29 192 21
-200 97 -251 48 -297 57 -335 63 -22 4 -41 7 -42 7 -2 -1 -17 4 -35 9 -18 5
-53 12 -78 15 -25 3 -85 15 -134 25 -110 23 -122 24 -129 2z"/>
<path d="M1099 1815 c-3 -2 -23 -7 -45 -10 -21 -4 -50 -8 -64 -11 -14 -3 -38
-7 -55 -10 -27 -4 -75 -12 -100 -16 -5 0 -26 -5 -45 -9 -29 -7 -94 -19 -245
-44 -11 -2 -31 -6 -45 -9 -14 -3 -42 -8 -64 -11 -21 -3 -41 -7 -45 -9 -3 -2
-26 -7 -51 -10 -25 -3 -57 -8 -72 -11 -53 -10 -73 -13 -113 -20 -22 -3 -52 -9
-68 -11 l-27 -6 0 -227 c0 -125 3 -231 6 -234 4 -4 19 2 33 12 49 34 262 161
271 161 4 0 10 3 12 8 4 9 107 72 119 72 5 0 9 4 9 8 0 5 16 14 35 22 19 8 35
17 35 21 0 3 14 12 30 19 17 7 30 16 30 21 0 5 4 9 9 9 8 0 169 94 256 149 17
10 66 40 110 67 44 26 82 51 83 56 2 4 10 8 17 8 8 0 17 5 20 10 6 10 -27 15
-36 5z"/>
<path d="M3125 1710 c-77 -31 -185 -72 -315 -120 -47 -17 -94 -35 -105 -39
-32 -15 -107 -42 -155 -57 -25 -8 -54 -19 -65 -24 -11 -5 -58 -23 -105 -40
-47 -17 -94 -35 -105 -40 -11 -4 -58 -22 -105 -40 -133 -50 -131 -49 -70 -49
79 -2 1033 -3 1046 -2 6 1 11 7 12 14 0 6 8 50 16 97 15 75 36 194 52 284 3
16 7 33 10 38 10 16 -42 6 -111 -22z"/>
<path d="M1033 1600 c-34 -22 -67 -40 -73 -40 -5 0 -10 -4 -10 -9 0 -5 -8 -11
-17 -14 -18 -6 -74 -37 -83 -47 -5 -5 -282 -174 -345 -210 -16 -10 -67 -40
-113 -69 -46 -28 -87 -51 -91 -51 -4 0 -16 -8 -27 -18 -10 -9 -40 -28 -67 -42
-49 -26 -55 -37 -36 -71 6 -11 12 -28 14 -37 8 -31 140 -352 145 -352 3 1 19
19 35 41 17 22 35 45 40 52 6 6 33 41 60 77 27 36 54 68 60 72 5 4 6 8 1 8 -6
0 -3 6 6 13 9 6 64 75 122 152 59 77 112 147 119 155 24 29 142 182 157 204 8
11 25 32 37 46 13 14 23 28 23 32 0 3 6 13 13 20 34 36 103 128 95 128 -2 0
-31 -18 -65 -40z"/>
<path d="M1050 1362 c-36 -47 -70 -90 -75 -96 -6 -6 -22 -27 -35 -46 -13 -19
-32 -44 -42 -54 -10 -11 -30 -38 -45 -60 -16 -23 -33 -45 -39 -51 -5 -5 -30
-37 -55 -70 -24 -33 -46 -62 -49 -65 -3 -3 -35 -43 -70 -90 -36 -47 -68 -87
-71 -90 -3 -3 -32 -40 -64 -83 l-58 -78 24 -26 c42 -46 162 -173 228 -242 73
-75 64 -81 106 64 15 50 43 141 62 204 19 62 36 118 37 125 2 6 9 31 16 56 7
25 14 50 16 55 1 6 43 150 94 319 50 169 90 309 88 311 -2 1 -32 -36 -68 -83z"/>
<path d="M1201 1263 c-1 -13 -1 -26 0 -29 0 -4 -4 -10 -9 -13 -6 -4 -12 -18
-14 -31 -2 -14 -7 -30 -10 -36 -4 -6 -9 -21 -12 -35 -10 -47 -19 -84 -28 -109
-3 -8 -15 -48 -27 -87 -49 -170 -64 -220 -74 -253 -6 -19 -12 -39 -13 -45 -1
-5 -23 -80 -48 -165 -26 -85 -48 -162 -50 -170 -2 -8 -7 -27 -11 -42 -4 -17
-3 -28 3 -28 10 0 96 -39 302 -138 99 -48 125 -52 115 -18 -2 6 -6 40 -10 76
-3 36 -8 85 -10 110 -3 25 -7 72 -10 105 -2 33 -7 83 -9 110 -3 28 -8 79 -11
115 -2 36 -9 112 -15 170 -6 58 -13 134 -16 170 -3 36 -7 83 -10 105 -2 22 -7
81 -10 130 -7 88 -22 159 -23 108z"/>
<path d="M1931 1172 l-23 -4 23 -12 c13 -6 44 -18 69 -26 25 -7 50 -17 55 -20
6 -4 35 -16 65 -28 30 -11 105 -39 165 -62 61 -23 129 -51 152 -61 24 -10 45
-19 48 -19 3 0 56 -20 118 -44 107 -42 328 -126 333 -126 1 0 32 51 69 113 38
61 83 135 102 164 18 28 33 54 33 58 0 3 7 13 15 21 8 9 15 22 15 30 0 12 -59
14 -387 15 -214 0 -487 1 -608 2 -121 1 -231 0 -244 -1z"/>
<path d="M1357 1133 c-2 -4 -3 -17 -1 -28 2 -11 6 -54 9 -95 8 -101 15 -184
21 -250 3 -30 7 -73 9 -95 8 -103 34 -393 40 -455 2 -19 4 -56 6 -83 1 -26 7
-51 13 -56 6 -5 56 -11 111 -15 55 -4 120 -8 145 -11 146 -12 200 -15 200 -8
0 5 -59 127 -132 273 -244 492 -410 825 -413 828 -2 2 -5 0 -8 -5z"/>
<path d="M1741 1083 c8 -10 24 -26 36 -36 12 -10 40 -35 61 -55 21 -20 59 -54
83 -75 24 -22 69 -62 100 -90 30 -29 97 -90 149 -137 51 -47 105 -96 120 -110
15 -14 60 -54 100 -90 39 -36 88 -80 108 -97 20 -18 40 -33 44 -33 7 0 132 93
148 110 3 3 32 25 65 50 67 50 85 64 128 101 l30 25 -79 28 c-43 16 -97 36
-119 46 -22 10 -56 23 -75 30 -19 7 -44 16 -55 20 -25 10 -244 94 -390 150
-60 23 -119 45 -130 50 -11 5 -78 31 -150 59 -209 80 -190 74 -174 54z"/>
<path d="M1540 1085 c0 -6 108 -227 239 -492 l239 -481 39 9 c68 18 97 26 187
54 49 15 94 28 100 30 51 11 107 29 112 36 3 5 -16 29 -42 52 -26 23 -66 60
-89 82 -23 22 -77 72 -120 110 -44 39 -100 90 -126 115 -26 25 -73 68 -106 97
-32 28 -76 68 -98 88 -22 20 -78 71 -124 114 -110 99 -120 109 -169 156 -23
21 -42 35 -42 30z"/>
</g>
</svg>
